<svg width="400" height="366" viewBox="0 0 400 366" fill="none" xmlns="http://www.w3.org/2000/svg">
<g filter="url(#filter0_d_80_54)">
<ellipse cx="204.695" cy="162.191" rx="162.191" ry="162.191" fill="url(#paint0_linear_80_54)"/>
<ellipse cx="171.608" cy="217.336" rx="97.3148" ry="97.3148" fill="url(#paint1_linear_80_54)"/>
<ellipse cx="144.36" cy="256.911" rx="48.6574" ry="48.6574" fill="url(#paint2_linear_80_54)"/>
<path d="M237.457 3.24313C281.898 144.675 241.675 239.395 121.004 301.026M237.457 3.24313L121.004 301.026M237.457 3.24313C345.348 133.862 286.439 294.864 121.004 301.026M237.457 3.24313C456.096 76.5228 333.142 401.738 121.004 301.026M237.457 3.24313C407.434 106.073 326.987 338.331 121.004 301.026" stroke="white" stroke-opacity="0.5"/>
<path d="M54.2983 100.905L357.272 217.683" stroke="white" stroke-opacity="0.5"/>
<path d="M54.2983 100.905C6.49735 298.108 257.57 395.098 357.272 217.683M54.2983 100.905C131.709 238.421 236.809 274.428 357.272 217.683M54.2983 100.905C42.5038 282.862 244.594 352.28 357.272 217.683M54.2983 100.905C87.9174 262.426 238.107 319.841 357.272 217.683M54.2983 100.905C149.732 200.203 254.909 236.092 357.272 217.683" stroke="white" stroke-opacity="0.5"/>
</g>
<defs>
<filter id="filter0_d_80_54" x="42.5037" y="0" width="344.383" height="344.383" filterUnits="userSpaceOnUse" color-interpolation-filters="sRGB">
<feFlood flood-opacity="0" result="BackgroundImageFix"/>
<feColorMatrix in="SourceAlpha" type="matrix" values="0 0 0 0 0 0 0 0 0 0 0 0 0 0 0 0 0 0 127 0" result="hardAlpha"/>
<feOffset dx="10" dy="10"/>
<feGaussianBlur stdDeviation="5"/>
<feColorMatrix type="matrix" values="0 0 0 0 0.678431 0 0 0 0 1 0 0 0 0 0.184314 0 0 0 1 0"/>
<feBlend mode="normal" in2="BackgroundImageFix" result="effect1_dropShadow_80_54"/>
<feBlend mode="normal" in="SourceGraphic" in2="effect1_dropShadow_80_54" result="shape"/>
</filter>
<linearGradient id="paint0_linear_80_54" x1="302.01" y1="33.4114" x2="88.8904" y2="280.915" gradientUnits="userSpaceOnUse">
<stop stop-color="#487EE7"/>
<stop offset="0.447917" stop-color="#5584E3"/>
<stop offset="1" stop-color="#884FE4"/>
</linearGradient>
<linearGradient id="paint1_linear_80_54" x1="229.997" y1="140.068" x2="102.125" y2="288.571" gradientUnits="userSpaceOnUse">
<stop stop-color="#487EE7"/>
<stop offset="0.447917" stop-color="#5584E3"/>
<stop offset="1" stop-color="#884FE4"/>
</linearGradient>
<linearGradient id="paint2_linear_80_54" x1="173.555" y1="218.277" x2="109.619" y2="292.528" gradientUnits="userSpaceOnUse">
<stop stop-color="#487EE7"/>
<stop offset="0.447917" stop-color="#5584E3"/>
<stop offset="1" stop-color="#884FE4"/>
</linearGradient>
</defs>
</svg>
