<svg width="617" height="563" viewBox="0 0 617 563" fill="none" xmlns="http://www.w3.org/2000/svg">
<circle cx="315.515" cy="250" r="250" fill="url(#paint0_linear_80_54)"/>
<circle cx="264.515" cy="335" r="150" fill="url(#paint1_linear_80_54)"/>
<circle cx="222.515" cy="396" r="75" fill="url(#paint2_linear_80_54)"/>
<path d="M366.014 4.99902C434.515 223 372.515 369 186.514 463.999M366.014 4.99902L186.514 463.999M366.014 4.99902C532.315 206.334 441.515 454.5 186.514 463.999M366.014 4.99902C703.022 117.952 513.502 619.235 186.514 463.999M366.014 4.99902C628.015 163.5 504.015 521.5 186.514 463.999" stroke="white"/>
<path d="M83.6946 155.533L550.695 335.533" stroke="white"/>
<path d="M83.6946 155.533C10.0147 459.5 397.015 609 550.695 335.533M83.6946 155.533C203.015 367.5 365.015 423 550.695 335.533M83.6946 155.533C65.5147 436 377.015 543 550.695 335.533M83.6946 155.533C135.515 404.5 367.015 493 550.695 335.533M83.6946 155.533C230.795 308.591 392.913 363.909 550.695 335.533" stroke="white"/>
<defs>
<linearGradient id="paint0_linear_80_54" x1="465.515" y1="51.5" x2="137.015" y2="433" gradientUnits="userSpaceOnUse">
<stop stop-color="#487EE7"/>
<stop offset="0.447917" stop-color="#5584E3"/>
<stop offset="1" stop-color="#884FE4"/>
</linearGradient>
<linearGradient id="paint1_linear_80_54" x1="354.515" y1="215.9" x2="157.415" y2="444.8" gradientUnits="userSpaceOnUse">
<stop stop-color="#487EE7"/>
<stop offset="0.447917" stop-color="#5584E3"/>
<stop offset="1" stop-color="#884FE4"/>
</linearGradient>
<linearGradient id="paint2_linear_80_54" x1="267.515" y1="336.45" x2="168.965" y2="450.9" gradientUnits="userSpaceOnUse">
<stop stop-color="#487EE7"/>
<stop offset="0.447917" stop-color="#5584E3"/>
<stop offset="1" stop-color="#884FE4"/>
</linearGradient>
</defs>
</svg>
